<svg width="48" height="48" viewBox="0 0 48 48" fill="none" xmlns="http://www.w3.org/2000/svg">
<path d="M20 25.9999C20.8589 27.1482 21.9547 28.0983 23.2131 28.7858C24.4715 29.4733 25.863 29.8822 27.2933 29.9846C28.7236 30.087 30.1592 29.8807 31.5027 29.3795C32.8462 28.8783 34.0662 28.0941 35.08 27.0799L41.08 21.0799C42.9016 19.1939 43.9095 16.6679 43.8867 14.0459C43.864 11.424 42.8123 8.91583 40.9582 7.06175C39.1041 5.20766 36.596 4.15597 33.974 4.13319C31.352 4.11041 28.826 5.11835 26.94 6.93993L23.5 10.3599M28 21.9999C27.1411 20.8517 26.0453 19.9016 24.7869 19.2141C23.5285 18.5265 22.137 18.1177 20.7067 18.0153C19.2764 17.9128 17.8408 18.1192 16.4973 18.6204C15.1538 19.1215 13.9338 19.9058 12.92 20.9199L6.92 26.9199C5.09842 28.806 4.09048 31.332 4.11326 33.9539C4.13605 36.5759 5.18774 39.084 7.04182 40.9381C8.8959 42.7922 11.404 43.8439 14.026 43.8667C16.648 43.8895 19.174 42.8815 21.06 41.0599L24.48 37.6399" stroke="#1E1E1E" stroke-width="4" stroke-linecap="round" stroke-linejoin="round"/>
</svg>
